<?xml version="1.0" encoding="UTF-8"?>
<svg width="190px" height="76px" viewBox="0 0 190 76" version="1.1" xmlns="http://www.w3.org/2000/svg" xmlns:xlink="http://www.w3.org/1999/xlink">
    <title>अदिति</title>
    <g id="WEBSITES" stroke="none" stroke-width="1" fill="none" fill-rule="evenodd">
        <g id="ADITI-Homepage-Images" transform="translate(-233.000000, -400.000000)" fill="#000000" fill-rule="nonzero">
            <path d="M282.608,470 L282.608,429.536 L290.168,429.536 L290.168,421.688 L266.84,421.688 L266.84,429.536 L272.456,429.536 L272.456,444.44 C271.088,445.16 269.216,445.664 266.696,445.664 C264.896,445.664 262.88,445.232 260.936,444.224 C260.792,444.152 260.648,444.08 260.504,443.936 L260.432,443.936 C259.64,443.504 258.776,443.216 257.984,443.072 L257.984,442.784 C261.368,441.128 263.24,437.6 263.24,433.496 C263.24,426.152 257.624,421.328 249.2,421.328 C243.224,421.328 238.688,424.064 236.384,427.376 L242.72,433.352 C244.088,431.12 246.032,429.752 248.912,429.752 C252.008,429.752 253.952,431.696 253.952,434.504 C253.952,437.744 252.152,440.048 247.76,440.048 L245.24,440.048 L245.24,448.472 L249.128,448.472 C253.736,448.472 255.968,450.344 255.968,453.44 C255.968,456.608 253.736,458.912 249.92,458.912 C245.24,458.912 242.144,455.816 240.632,453.152 L233.648,459.56 C235.448,462.224 240.344,467.336 249.776,467.336 C259.568,467.336 265.688,461.36 265.688,453.224 L265.688,452.792 C266.768,453.224 267.92,453.512 269.216,453.512 C270.44,453.512 271.52,453.296 272.456,453.008 L272.456,470 L282.608,470 Z M343.976,475.616 L355.352,472.808 L346.136,461.936 C348.008,460.064 349.16,458.192 349.16,455.312 C349.16,450.92 346.352,448.832 343.472,447.392 L337.064,449.768 L337.064,456.68 C335.912,457.688 334.472,458.192 332.888,458.264 C329.072,458.48 324.968,456.104 324.968,451.784 C324.968,447.608 327.488,445.304 335.12,443.36 L344.84,440.912 L344.84,429.536 L355.208,429.536 L355.208,421.688 L310.64,421.688 L310.64,429.536 L334.472,429.536 L334.472,433.928 L328.28,435.44 C319.136,437.672 315.248,442.28 315.248,449.84 C315.248,460.568 324.464,466.904 334.112,466.904 C335.84,466.904 337.568,466.688 339.296,466.256 L343.976,475.616 Z M307.4,470 L307.4,429.536 L314.96,429.536 L314.96,421.688 L307.4,421.688 L307.4,416.72 C307.4,411.608 310.856,409.016 316.688,409.016 C326.48,409.016 332.816,413.552 336.632,418.232 L343.04,412.112 C340.088,408.224 331.232,400.376 316.832,400.376 C305.312,400.376 297.248,406.136 297.248,416.792 L297.248,421.688 L289.688,421.688 L289.688,429.536 L297.248,429.536 L297.248,470 L307.4,470 Z M392.312,470.936 L399.584,464.6 C394.472,461 391.304,456.32 391.304,450.848 C391.304,446.456 394.184,444.656 397.568,444.656 L404.768,444.656 L404.768,470 L414.92,470 L414.92,429.536 L422.552,429.536 L422.552,421.688 L375.68,421.688 L375.68,429.536 L404.768,429.536 L404.768,435.944 L395.768,435.944 C388.784,435.944 380.936,439.904 380.936,450.488 C380.936,459.992 386.912,467.264 392.312,470.936 Z M372.44,470 L372.44,429.536 L380,429.536 L380,421.688 L372.44,421.688 L372.44,417.08 C372.44,411.824 375.896,409.016 383.312,409.016 C394.04,409.016 401.96,413.48 406.496,418.232 L412.616,412.04 C408.944,407.936 398.576,400.376 383.456,400.376 C370.352,400.376 362.288,406.424 362.288,417.152 L362.288,421.688 L354.728,421.688 L354.728,429.536 L362.288,429.536 L362.288,470 L372.44,470 Z" id="अदिति"></path>
        </g>
    </g>
</svg>