<svg xmlns="http://www.w3.org/2000/svg" xmlns:xlink="http://www.w3.org/1999/xlink" version="1.1" x="0px" y="0px" viewBox="0 0 100 100" enable-background="new 0 0 100 100" xml:space="preserve" width="100px" height="100px"><path d="M89.584,47.646c0.515-0.515,1.35-0.515,1.865,0c0.515,0.515,0.515,1.351,0,1.866c-0.516,0.516-1.351,0.515-1.866,0  C89.069,48.997,89.069,48.162,89.584,47.646z M82.633,49.614c0.515,0.514,1.35,0.514,1.865-0.001c0.515-0.515,0.515-1.35,0-1.865  c-0.515-0.515-1.351-0.515-1.866,0C82.118,48.263,82.118,49.099,82.633,49.614z M76.412,49.394c0.514,0.514,1.35,0.514,1.865-0.001  c0.515-0.515,0.515-1.35,0-1.865c-0.515-0.515-1.351-0.515-1.865,0C75.896,48.043,75.896,48.878,76.412,49.394z M70.24,49.373  c0.515,0.514,1.35,0.514,1.865-0.001c0.515-0.515,0.515-1.35,0-1.865c-0.515-0.515-1.351-0.515-1.866,0  C69.725,48.022,69.725,48.857,70.24,49.373z M63.977,49.533c0.515,0.515,1.35,0.515,1.865,0s0.515-1.351,0-1.866  c-0.515-0.515-1.35-0.515-1.865,0S63.462,49.019,63.977,49.533z M57.593,49.454c0.514,0.515,1.35,0.515,1.865,0s0.515-1.351,0-1.865  c-0.515-0.515-1.351-0.515-1.866,0S57.078,48.939,57.593,49.454z M51.366,49.543c0.514,0.515,1.35,0.515,1.865,0  c0.515-0.515,0.515-1.351,0-1.865c-0.515-0.515-1.351-0.515-1.866,0C50.851,48.193,50.851,49.028,51.366,49.543z M45.092,49.44  c0.515,0.515,1.35,0.516,1.865,0s0.515-1.351,0-1.866s-1.351-0.515-1.866,0S44.577,48.925,45.092,49.44z M38.828,49.493  c0.515,0.515,1.351,0.515,1.866,0c0.515-0.515,0.515-1.35,0-1.865c-0.515-0.515-1.35-0.515-1.865,0  C38.313,48.143,38.313,48.979,38.828,49.493z M32.724,49.414c0.515,0.515,1.351,0.515,1.866,0c0.515-0.515,0.515-1.35,0-1.865  c-0.515-0.515-1.35-0.515-1.865,0C32.209,48.064,32.209,48.9,32.724,49.414z M26.421,49.454c0.515,0.515,1.351,0.515,1.866,0  c0.515-0.515,0.515-1.35,0-1.865c-0.515-0.515-1.351-0.515-1.866,0C25.906,48.104,25.907,48.94,26.421,49.454z M20.164,49.447  c0.515,0.515,1.35,0.516,1.865,0s0.515-1.351,0-1.866c-0.515-0.515-1.35-0.515-1.865,0S19.649,48.933,20.164,49.447z M13.947,49.428  c0.515,0.515,1.351,0.516,1.866,0s0.515-1.351,0-1.866c-0.515-0.514-1.35-0.514-1.865,0.001S13.433,48.913,13.947,49.428z   M7.972,49.487c0.515,0.515,1.35,0.516,1.865,0s0.515-1.351,0-1.866c-0.514-0.515-1.35-0.515-1.865,0S7.457,48.973,7.972,49.487z"/></svg>