<svg xmlns="http://www.w3.org/2000/svg" id="Layer_15f29ea05f5d53" data-name="Layer 1" viewBox="0 0 756.52 230.21" aria-hidden="true" width="756px" height="230px"><defs><linearGradient class="cerosgradient" data-cerosgradient="true" id="CerosGradient_id9e8e21e2d" gradientUnits="userSpaceOnUse" x1="50%" y1="100%" x2="50%" y2="0%"><stop offset="0%" stop-color="#d1d1d1"/><stop offset="100%" stop-color="#d1d1d1"/></linearGradient><linearGradient/><style>.cls-1-5f29ea05f5d53{fill:#231f20;}</style></defs><title>STANLEY Security black wordmark</title><path class="cls-1-5f29ea05f5d53" d="M91.76,216c-4.45-1.74-6.89-2.53-11.43-2.53-4.89,0-10.66,1.75-10.66,8.12,0,11.7,26.2,9,26.2,29.07,0,13-10,18.17-22.27,18.17-4.28,0-8.47-1.23-12.48-2.54l.87-8.12c3,1.23,8.21,3,12.66,3,5,0,12-2.79,12-10,0-13.62-26.19-9.87-26.19-28.82,0-10.82,8.55-16.59,19.56-16.59A40.49,40.49,0,0,1,93,208l-1.22,8" transform="translate(-56.99 -56.99)"/><path class="cls-1-5f29ea05f5d53" d="M141.1,266c-3.15,1.14-6.73,2.89-14.06,2.89-15.8,0-23.05-9.61-23.05-24.1,0-13.19,8.29-22.53,20.87-22.53,14.84,0,19.64,10.83,19.64,25.15H112.72a14.57,14.57,0,0,0,14.67,14.84c5.41,0,11.7-2.79,13.71-4.45V266m-5.33-24.71c0-6.81-4-12.39-11.09-12.39-8,0-11.35,6.63-12,12.39Z" transform="translate(-56.99 -56.99)"/><path class="cls-1-5f29ea05f5d53" d="M183.79,230.8a23.72,23.72,0,0,0-8.9-1.92c-9.17,0-14.32,8.2-14.32,16.67,0,7.95,4.28,16.68,14.84,16.68a17.11,17.11,0,0,0,8.82-2.53l.61,7.33a25,25,0,0,1-10.3,1.84c-13.45,0-22.7-10.57-22.7-23.32,0-13.53,9.08-23.31,22.7-23.31a30.66,30.66,0,0,1,10,1.75l-.7,6.81" transform="translate(-56.99 -56.99)"/><path class="cls-1-5f29ea05f5d53" d="M233.65,267.82h-7.94v-7.08h-.18c-2.44,5.07-8.38,8.13-14.58,8.13-11.53,0-16.68-7.16-16.68-19.13V223.29h8.21v23.05c0,10.39,2.27,15.45,9.43,15.89,9.34,0,13.53-7.51,13.53-18.34v-20.6h8.21v44.53" transform="translate(-56.99 -56.99)"/><path class="cls-1-5f29ea05f5d53" d="M247.62,223.29h7.69v6.9h.17c2.18-4.63,6.9-7.95,11.61-7.95a23.16,23.16,0,0,1,5.42.61v7.34a12,12,0,0,0-4.54-.79c-7.34,0-12.14,7-12.14,18.16v20.26h-8.21V223.29" transform="translate(-56.99 -56.99)"/><path class="cls-1-5f29ea05f5d53" d="M291.37,213.33h-9.26v-9.25h9.26Zm-8.73,10h8.2v44.53h-8.2Z" transform="translate(-56.99 -56.99)"/><path class="cls-1-5f29ea05f5d53" d="M329.53,229.93H317.74v24.35c0,5.16,3.14,8,6.9,8a10.22,10.22,0,0,0,5.59-1.57v7a25.54,25.54,0,0,1-7,1.23c-8.47,0-13.71-4-13.71-12.93v-26h-10v-6.64h10V213l8.21-2.61v12.92h11.79v6.64" transform="translate(-56.99 -56.99)"/><path class="cls-1-5f29ea05f5d53" d="M336.51,279.87a12.58,12.58,0,0,0,3.84.69c7.34,0,9.78-10.12,9.78-11s-1-3.23-1.57-4.71l-15.1-41.56h9l12,36.84h.18l12.22-36.84h8.29l-16.41,45.49c-3.06,8.55-6.29,18.42-17.11,18.42a27.06,27.06,0,0,1-5.59-.61l.52-6.72" transform="translate(-56.99 -56.99)"/><path class="cls-1-5f29ea05f5d53" d="M60.42,142.87a70.49,70.49,0,0,0,33.1,8.19c9.51,0,20.48-1.89,20.48-10.5C114,120.48,57.24,132,57.24,91c0-27.08,25-34,47.57-34a112.4,112.4,0,0,1,34.4,5.19l-2.8,24.15c-7.91-3.27-17.93-6.56-29.23-6.56-7.59,0-19.3.5-19.3,10.33,0,17.74,57.06,8.56,57.06,47.9,0,29.18-26.44,35.84-51.42,35.84A127.2,127.2,0,0,1,57,168.38l3.43-25.51M247.33,59.16H152.79V82h32.29v89.66h30V82h32.27Zm531.16,0-21.77,45.13L734.63,59.16h-34.5l41.59,70.11v42.41h30V129.27L813,59.16Zm-401.9,0V171.68h28.86V111l48.95,60.64h24.53V154.74L401.27,59.16Zm102.34,57v-57H433Zm156.2,10h47.29V103.71H635.13V81.28h52V59.16H604.38V171.68h84.48V149.24H635.13Zm-98.08-67H506.3V171.68h79.95V148.5h-49.2Zm-215.89,90H279.05l-7.64,22.48H242.15L283.4,59.16h34.84L360.1,171.68H328.53Zm-6.61-21.27-14-45.18-14.59,45.18Z" transform="translate(-56.99 -56.99)"/><path class="cls-1-5f29ea05f5d53" d="M794.25,162.37a9.63,9.63,0,1,1,9.63,9.63,9.65,9.65,0,0,1-9.63-9.63m16.92,0c0-4.5-3.26-7.76-7.29-7.76s-7.28,3.26-7.28,7.76,3.26,7.77,7.28,7.77S811.17,166.88,811.17,162.37Zm-11-5.49h4.05c2.61,0,4,.91,4,3.2,0,1.87-1.07,2.77-2.86,2.94l2.94,4.77h-2.08l-2.83-4.69H802.2v4.69h-2Zm2,4.67H804c1.2,0,2.24-.16,2.24-1.63,0-1.28-1.17-1.49-2.21-1.49H802.2Z" transform="translate(-56.99 -56.99)"/></svg>