<?xml version="1.0" encoding="UTF-8"?><svg xmlns="http://www.w3.org/2000/svg" xmlns:xlink="http://www.w3.org/1999/xlink" width="32px" height="32px" viewBox="0 0 32 32" version="1.1" aria-hidden="true"><defs><linearGradient class="cerosgradient" data-cerosgradient="true" id="CerosGradient_id7f0f84210" gradientUnits="userSpaceOnUse" x1="50%" y1="100%" x2="50%" y2="0%"><stop offset="0%" stop-color="#d1d1d1"/><stop offset="100%" stop-color="#d1d1d1"/></linearGradient><linearGradient/></defs>
    <title>Group 2</title>
    <g id="1_Home" stroke="none" stroke-width="1" fill="none" fill-rule="evenodd">
        <g id="1.1_Home_1680_Default" transform="translate(-79.000000, -3660.000000)">
            <g id="Group-115eed1706f318d" transform="translate(0.000000, 3523.000000)">
                <g id="Group-35eed1706f318d" transform="translate(79.000000, 89.000000)">
                    <g id="Group-25eed1706f318d" transform="translate(0.000000, 48.000000)">
                        <circle id="Oval5eed1706f318d" fill="#D7D7D7" cx="16" cy="16" r="16"/>
                        <g id="Icon/Social-Facebook-Footer" transform="translate(12.000000, 8.000000)" fill="#231F20">
                            <path d="M2.36466482,15 L2.36466482,8.1571875 L0,8.1571875 L0,5.4909375 L2.36466482,5.4909375 L2.36466482,3.525 C2.36466482,1.2421875 3.79636539,0 5.88662896,0 C6.88795282,0 7.74870622,0.0721875 8,0.105 L8,2.49 L6.55000602,2.49 C5.41292574,2.49 5.19244193,3.016875 5.19244193,3.7884375 L5.19244193,5.4909375 L7.90371886,5.4909375 L7.55132988,8.1571875 L5.19244193,8.1571875 L5.19244193,15 L2.36466482,15 Z" id="Facebook-Icon5eed1706f318d"/>
                        </g>
                    </g>
                </g>
            </g>
        </g>
    </g>
</svg>