<?xml version="1.0" encoding="UTF-8"?><svg xmlns="http://www.w3.org/2000/svg" xmlns:xlink="http://www.w3.org/1999/xlink" width="32px" height="32px" viewBox="0 0 32 32" version="1.1" aria-hidden="true"><defs><linearGradient class="cerosgradient" data-cerosgradient="true" id="CerosGradient_id8688d76a1" gradientUnits="userSpaceOnUse" x1="50%" y1="100%" x2="50%" y2="0%"><stop offset="0%" stop-color="#d1d1d1"/><stop offset="100%" stop-color="#d1d1d1"/></linearGradient><linearGradient/></defs>
    <title>Group 4</title>
    <g id="1_Home" stroke="none" stroke-width="1" fill="none" fill-rule="evenodd">
        <g id="1.1_Home_1680_Default" transform="translate(-131.000000, -3660.000000)">
            <g id="Group-115eed1706f318e" transform="translate(0.000000, 3523.000000)">
                <g id="Group-35eed1706f318e" transform="translate(79.000000, 89.000000)">
                    <g id="Group-45eed1706f318e" transform="translate(52.000000, 48.000000)">
                        <circle id="Oval5eed1706f318e" fill="#D7D7D7" cx="16" cy="16" r="16"/>
                        <path d="M10.796875,11.4945504 C11.34375,11.4945504 11.7848307,11.3276567 12.1201172,10.9938692 C12.4554036,10.6600817 12.6197917,10.2445504 12.6132812,9.7472752 C12.6067708,9.24318801 12.4407552,8.82595368 12.1152344,8.49557221 C11.7897135,8.16519074 11.3567708,8 10.8164062,8 C10.2760417,8 9.83821615,8.16519074 9.50292969,8.49557221 C9.16764323,8.82595368 9,9.24318801 9,9.7472752 C9,10.2445504 9.16276042,10.6600817 9.48828125,10.9938692 C9.81380208,11.3276567 10.2434896,11.4945504 10.7773438,11.4945504 L10.7773438,11.4945504 L10.796875,11.4945504 Z M17.3984375,23 L17.3984375,17.349455 C17.3984375,17.0020436 17.4342448,16.726158 17.5058594,16.5217984 C17.6425781,16.1743869 17.8492839,15.8831744 18.1259766,15.6481608 C18.4026693,15.4131471 18.7460938,15.2956403 19.15625,15.2956403 C19.7161458,15.2956403 20.1279297,15.498297 20.3916016,15.9036104 C20.6552734,16.3089237 20.7871094,16.8692098 20.7871094,17.5844687 L20.7871094,17.5844687 L20.7871094,23 L24,23 L24,17.1961853 C24,15.7043597 23.6614583,14.5718665 22.984375,13.7987057 C22.3072917,13.025545 21.4121094,12.6389646 20.2988281,12.6389646 C19.8886719,12.6389646 19.5159505,12.6917575 19.1806641,12.7973433 C18.8453776,12.9029292 18.5621745,13.0510899 18.3310547,13.2418256 C18.0999349,13.4325613 17.9160156,13.609673 17.7792969,13.7731608 C17.6425781,13.9366485 17.5091146,14.1273842 17.3789062,14.3453678 L17.3975,14.3155313 L17.3984375,12.8739782 L14.1855469,12.8739782 L14.1953125,13.3644414 C14.2018229,13.6914169 14.2050781,14.6995913 14.2050781,16.3889646 C14.2050781,18.0783379 14.1985677,20.2820163 14.1855469,23 L14.1855469,23 L17.3984375,23 Z M12.4082031,23 L12.4082031,12.8739782 L9.18554688,12.8739782 L9.18554688,23 L12.4082031,23 Z" id="" fill="#231F20" fill-rule="nonzero"/>
                    </g>
                </g>
            </g>
        </g>
    </g>
</svg>