<?xml version="1.0" encoding="utf-8"?><!-- Generator: Adobe Illustrator 25.0.0, SVG Export Plug-In . SVG Version: 6.00 Build 0)  --><svg xmlns="http://www.w3.org/2000/svg" xmlns:xlink="http://www.w3.org/1999/xlink" version="1.1" x="0px" y="0px" viewBox="0 0 625.8 284.2" style="enable-background:new 0 0 625.8 284.2;" xml:space="preserve" aria-hidden="true" width="625px" height="284px"><defs><linearGradient class="cerosgradient" data-cerosgradient="true" id="CerosGradient_idbe1f91491" gradientUnits="userSpaceOnUse" x1="50%" y1="100%" x2="50%" y2="0%"><stop offset="0%" stop-color="#d1d1d1"/><stop offset="100%" stop-color="#d1d1d1"/></linearGradient><linearGradient/></defs>
<style type="text/css">
	.st0-5fd6b6dbbfeda{fill-rule:evenodd;clip-rule:evenodd;}
	.st1-5fd6b6dbbfeda{fill-rule:evenodd;clip-rule:evenodd;fill:#FFD10B;}
</style>
<g id="fill_xA0_Image_1_5fd6b6dbbfeda">
</g>
<g id="UNA_short_1_5fd6b6dbbfeda">
	<g id="N5fd6b6dbbfeda">
		<g>
			<polygon class="st0-5fd6b6dbbfeda" points="383.8,53.2 353.8,53.2 353.8,177.7 267.8,53.7 267.8,53.2 237.8,53.2 237.8,230.2 267.8,230.2      267.8,105.1 353.8,230 353.8,230.2 353.9,230.2 353.9,230.2 353.9,230.2 383.8,230.2    "/>
		</g>
	</g>
	<g id="U5fd6b6dbbfeda">
		<g>
			<path class="st0-5fd6b6dbbfeda" d="M177.7,53.2c0,0,0,72,0,104.3c0-0.1,0-0.2,0-0.3c0,23.5,0,17.7,0,0.3c-0.1,23.6-18.9,42.8-42.6,42.8     c-23.5,0-43-18.8-43.4-42.2l0-64.8h-30v64.7c0,39.9,32.3,72.3,72.2,72.3s73.8-32.4,73.8-72.3V53.2H177.7z"/>
		</g>
	</g>
	<g id="U_copy5fd6b6dbbfeda">
		<g>
			<path class="st0-5fd6b6dbbfeda" d="M487.5,53.2c-39.9,0-73.8,32.4-73.8,72.3v104.7h30c0,0,0-72,0-104.3c0,0.1,0,0.2,0,0.3c0-23.5,0-17.7,0-0.3     c0.1-23.6,18.9-42.8,42.6-42.8c23.5,0,43,18.8,43.4,42.2l0,64.8h30v-64.7C559.7,85.6,527.4,53.2,487.5,53.2z"/>
		</g>
	</g>
	<g id="DOTS_YELLOW_1_5fd6b6dbbfeda">
		<g id="_x31_">
			<g>
				<circle class="st1-5fd6b6dbbfeda" cx="76.7" cy="68" r="15"/>
			</g>
		</g>
		<g id="_x32_">
			<g>
				<circle class="st1-5fd6b6dbbfeda" cx="544.7" cy="215.1" r="15"/>
			</g>
		</g>
	</g>
	<g>
		<path d="M572.7,56.9h-5.3v-2.5h13.7v2.5h-5.3v13.6h-3V56.9z"/>
		<path d="M598.1,70.5l0-10.7l-5.3,8.8h-1.3l-5.3-8.7v10.5h-2.9V54.4h2.5l6.4,10.7l6.3-10.7h2.5l0,16.1H598.1z"/>
	</g>
</g>
</svg>